<svg width="16" height="19" viewBox="0 0 16 19" fill="none" xmlns="http://www.w3.org/2000/svg">
<path d="M2.50065 1.25H13.5007C14.4173 1.25 15.1673 2 15.1673 2.91667V4.75C15.1673 5.41667 14.7507 6.25 14.334 6.66667L10.7507 9.83333C10.2507 10.25 9.91732 11.0833 9.91732 11.75V15.3333C9.91732 15.8333 9.58398 16.5 9.16732 16.75L8.00065 17.5C6.91732 18.1667 5.41732 17.4167 5.41732 16.0833V11.6667C5.41732 11.0833 5.08398 10.3333 4.75065 9.91667L1.58398 6.58333C1.16732 6.16667 0.833984 5.41667 0.833984 4.91667V3C0.833984 2 1.58398 1.25 2.50065 1.25Z" stroke="#212121" stroke-width="1.5" stroke-miterlimit="10" stroke-linecap="round" stroke-linejoin="round"/>
</svg>
