<svg width="15" height="16" viewBox="0 0 15 16" fill="none" xmlns="http://www.w3.org/2000/svg">
<path d="M4.375 8C1.875 8 1.875 9.11875 1.875 10.5V11.125C1.875 12.85 1.875 14.25 5 14.25H10C12.5 14.25 13.125 12.85 13.125 11.125V10.5C13.125 9.11875 13.125 8 10.625 8C10 8 9.825 8.13125 9.5 8.375L8.8625 9.05C8.125 9.8375 6.875 9.8375 6.13125 9.05L5.5 8.375C5.175 8.13125 5 8 4.375 8Z" stroke="#FDFDFD" stroke-width="1.5" stroke-miterlimit="10" stroke-linecap="round" stroke-linejoin="round"/>
<path d="M11.875 8V4.25C11.875 2.86875 11.875 1.75 9.375 1.75H5.625C3.125 1.75 3.125 2.86875 3.125 4.25V8" stroke="#FDFDFD" stroke-width="1.5" stroke-miterlimit="10" stroke-linecap="round" stroke-linejoin="round"/>
</svg>
