<svg width="15" height="15" viewBox="0 0 15 15" fill="none" xmlns="http://www.w3.org/2000/svg">
<path d="M13.125 3.7373C11.0438 3.53105 8.95 3.4248 6.8625 3.4248C5.625 3.4248 4.3875 3.4873 3.15 3.6123L1.875 3.7373" stroke="#CF1D1D" stroke-width="1.5" stroke-linecap="round" stroke-linejoin="round"/>
<path d="M5.3125 3.10625L5.45 2.2875C5.55 1.69375 5.625 1.25 6.68125 1.25H8.31875C9.375 1.25 9.45625 1.71875 9.55 2.29375L9.6875 3.10625" stroke="#CF1D1D" stroke-width="1.5" stroke-linecap="round" stroke-linejoin="round"/>
<path d="M11.7813 5.7124L11.375 12.0062C11.3063 12.9874 11.25 13.7499 9.50625 13.7499H5.49375C3.75 13.7499 3.69375 12.9874 3.625 12.0062L3.21875 5.7124" stroke="#CF1D1D" stroke-width="1.5" stroke-linecap="round" stroke-linejoin="round"/>
<path d="M6.45703 10.3125H8.53828" stroke="#CF1D1D" stroke-width="1.5" stroke-linecap="round" stroke-linejoin="round"/>
<path d="M5.9375 7.8125H9.0625" stroke="#CF1D1D" stroke-width="1.5" stroke-linecap="round" stroke-linejoin="round"/>
</svg>
